<?xml version="1.0" encoding="UTF-8"?>
<svg xmlns="http://www.w3.org/2000/svg" viewBox="0 0 1623 739" width="1623" height="739">
<path d="M599 29.09C604.33 29.09 609.67 29.09 615 29.09C615.17 29.49 615.33 29.9 615.5 30.3C617.33 30.25 619.17 30.19 621 30.14C624.28 30.43 627.56 30.71 630.83 31C631.06 31.33 631.28 31.66 631.5 31.99C632.83 32.13 634.17 32.28 635.5 32.42C635.67 31.94 635.83 31.45 636 30.97C636.67 31.26 637.33 31.56 638 31.85C638.17 32.23 638.33 32.6 638.5 32.98C640 33.01 641.5 33.04 643 33.06C646.17 33.38 649.33 33.69 652.5 34C652.59 34.21 652.68 34.43 652.77 34.64C653.01 35.09 653.26 35.55 653.5 36C654.67 36.02 655.83 36.03 657 36.05C663.67 37.68 670.33 39.31 677 40.94C678.56 42.81 679.57 42.91 682 43.02C694.12 43.91 710.11 54.4 721.69 58.81C726.71 60.73 736.41 64.96 740.11 68.68C740.41 69.13 740.7 69.59 741 70.04C741.3 70.03 741.6 70.02 741.9 70.01C744.7 71.83 746.14 75.17 747.19 78.31C751.29 90.61 743.56 105.18 729.99 106.73C727.97 106.76 725.95 106.79 723.93 106.83C714.56 106.77 710.76 97.97 704.5 93C701.11 90.31 696.75 87.52 694 84.24C693.02 82.27 692.97 82.38 690.81 81.91C688.14 80.54 685.87 78.74 683.34 77.16C679 74.43 673.93 72.45 669.34 70.16C664.78 67.88 659.12 66.09 655.07 63.27C653.71 61.82 653.94 62.01 651.78 61.85C644.97 59.29 638.16 56.73 631.35 54.17C630.01 53.12 629.92 53.05 628 52.95C626.83 52.97 625.67 52.98 624.5 53C624.42 52.76 624.34 52.52 624.27 52.28C623.04 51.21 623.05 51.08 621 50.95C614.33 49.6 607.67 48.26 601 46.91C600.17 46.6 599.33 46.28 598.5 45.96C598.28 46.31 598.06 46.65 597.83 47C597.2 46.9 596.57 46.8 595.94 46.7C594.29 46.55 592.65 46.4 591.01 46.25C585.69 46.24 580.36 46.22 575.04 46.21C573.53 46.14 572.01 46.07 570.5 46C570.4 46.28 570.31 46.56 570.21 46.83C567.29 47.71 564.64 47.62 561.69 48.19C556.05 49.27 550.13 51.11 544.69 53.19C526.05 60.29 512.14 73.69 501.47 89.97C495.65 98.85 490.76 108.11 491.07 119C490.72 119.17 490.37 119.33 490.02 119.5C490.01 121.17 490.01 122.83 490 124.5C490.36 124.67 490.72 124.83 491.07 125C490.82 140.2 500.58 159.7 509.53 171.97C511.8 175.08 514.92 177.69 516.87 180.96C517.42 182.93 517.4 182.98 519.33 183.88C524.26 188.81 529.18 193.73 534.1 198.65C535.09 200.92 535.75 201.47 538.04 202.12C541.06 204.65 544.08 207.18 547.1 209.72C548.05 211.63 548.12 211.57 550.13 212.1C551.76 213.33 553.38 214.56 555.01 215.79C556.01 217.67 556.1 217.6 558.16 218.09C561.51 219.78 564.02 222.31 567.03 224.47C575.82 230.75 585.48 236.09 594.66 241.84C605.01 248.34 616.3 253.35 626.66 259.84C630.69 262.37 634.97 263.96 638.7 266.97C639.98 268.63 640.25 268.61 642.37 268.98C645.89 270.2 649.45 272.84 652.66 274.84C661.25 280.23 670.72 284.64 678.97 290.53C680.71 291.78 682.21 293.3 684.03 294.47C691.78 299.43 705.28 307.04 711.09 313.76C712.03 315.62 712.14 315.58 714.07 316.1C721.33 320.66 731.43 330.98 736.53 337.97C739.16 341.57 742.87 344.39 745.47 348.03C754.29 360.38 762.63 376.62 764.97 391.53C765.61 395.64 765 400.33 765 404.5C765 411.53 764.98 418.35 762.14 424.84C761.78 426.04 761.42 427.24 761.05 428.43C759.1 433.97 756.7 441.04 752.25 445.08C750.36 446 750.4 446.08 749.87 448.03C747.08 452.73 742.31 455.41 738.03 458.53C728 465.85 721.11 468.83 709.69 473.19C708.32 473.71 707.45 474.63 706 475.08C705.83 474.65 705.67 474.22 705.5 473.78C703.94 474.62 702.38 475.46 700.82 476.29C695.69 478.86 679.06 481.92 673.17 482C672.34 481.83 671.52 481.67 670.7 481.5C670.8 481.96 670.9 482.43 671 482.89C668.33 482.89 665.67 482.89 663 482.88C661.5 482.83 660 482.77 658.5 482.72C658.33 483.12 658.17 483.53 658 483.93C657 483.9 656.01 483.87 655.01 483.84C653.7 483.8 652.39 483.77 651.07 483.73C641.2 484.76 630.21 484.49 620.53 482.97C618.43 482.64 616.38 481.59 614.31 481.19C612.1 480.76 610.13 480.99 608 480.15C607.83 479.74 607.67 479.33 607.5 478.92C606.33 478.91 605.17 478.9 604 478.89C597.56 478.67 591.49 475.97 585.31 474.19C579.09 472.39 572.02 471.42 566.38 468.09C564.85 466.86 564.73 466.96 562.61 466.85C558.35 465.92 554.43 463.76 550.31 462.19C541.42 458.8 532.58 455.2 523.69 451.81C518.76 449.93 514.24 447.07 509.31 445.19C505.43 443.71 501.98 441.98 498.31 440.19C491.69 436.96 483.85 435.24 478 430.5C478.32 425.71 481.64 420.76 483.84 416.34C487.52 409 490.8 401.4 494.5 394C496.46 390.09 497.14 384.3 501.5 383C504.52 389.05 507.52 394.47 511.53 399.97C516.85 407.25 525.03 412.14 531.09 418.68C532.09 420.93 532.77 421.49 535.04 422.13C536.4 423.33 537.76 424.53 539.13 425.73C540.06 427.63 540.15 427.56 542.1 428.09C546.75 431.65 551.39 435.21 556.03 438.77C557.03 440.67 557.12 440.59 559.2 441.08C561.46 442.66 563.72 444.23 565.97 445.8C567.03 447.64 567.14 447.57 569.25 448.03C580.22 454.36 591.06 461.83 603 466.5C606.63 467.92 610.5 469.03 613.93 470.69C615.16 471.92 615 471.91 617 472.08C619.34 472.76 621.68 473.45 624.02 474.14C625.04 474.35 626.05 474.55 627.07 474.75C630.38 475.44 633.69 476.12 637 476.8C637.17 477.2 637.33 477.59 637.5 477.99C638.83 478.15 640.17 478.32 641.5 478.48C641.67 477.98 641.83 477.47 642 476.97C648.65 480.3 657.98 477.09 665 476.95C667.02 476.85 667.01 476.71 668.21 475.7C670.24 474.67 672.96 474.49 675.31 473.81C679.55 472.59 687.09 468.69 690.97 466.47C705.37 458.21 722.17 437.41 726.81 421.31C728.08 416.93 728.31 412.95 729.03 408.53C729.27 407.08 730 406.03 730 404.5C730 402.97 729.26 401.92 729.03 400.47C727.61 391.39 725.92 382.75 720.84 374.66C717.06 368.61 712.42 363.06 708 357.5C704.53 353.13 699.68 350.39 695.92 346.34C694.99 344.38 694.98 344.42 692.94 343.89C688.1 340.88 683.61 336.92 678.97 333.53C673.56 329.58 667.61 326.14 661.97 322.53C651.71 315.95 640.67 310.63 630.34 304.16C627.62 302.45 624.38 301.55 621.66 299.84C614.24 295.2 606.4 291.19 599.03 286.47C591.52 281.65 584.31 276.23 577 271.24C575.96 269.34 575.84 269.43 573.73 268.94C569.8 266.04 565.87 263.14 561.94 260.24C560.95 258.36 560.84 258.43 558.82 257.92C547.2 249.81 536.62 240.12 526.5 230C521.53 225.03 515.78 219.95 512.1 214.06C511.57 212.11 511.6 212.03 509.71 211.11C505.47 207.23 502.59 201.8 499.47 197.03C488.61 180.45 480.83 161.91 479.88 142C480.27 141.83 480.65 141.67 481.03 141.5C481.03 139.5 481.04 137.5 481.04 135.5C480.65 135.33 480.26 135.17 479.88 135C481.64 98.93 506.55 66.53 536.34 47.84C543.35 43.45 554.68 36.61 563 36.03C564.11 35.62 565.22 35.22 566.34 34.81C572.68 31.88 586.06 29.73 593 30.15C594.83 30.21 596.67 30.27 598.5 30.32C598.67 29.91 598.83 29.5 599 29.09ZM971 28.87C974.29 31.21 981.22 29.99 985.5 29.99C997.17 29.99 1008.83 29.99 1020.5 29.99C1065.38 29.99 1110.28 30.36 1155.16 30C1154.94 36 1154.72 42 1154.5 48C1147.24 42.11 1137.73 38.22 1128 37.92C1127.5 37.36 1127 36.8 1126.5 36.24C1126 36.45 1125.5 36.67 1125 36.88C1123.17 36.59 1121.33 36.29 1119.5 36C1119 36.29 1118.5 36.59 1118 36.88C1117.83 36.31 1117.67 35.74 1117.5 35.17C1116.83 35.1 1116.17 35.04 1115.5 34.97C1115.28 35.31 1115.06 35.66 1114.83 36C1114.16 35.94 1113.48 35.89 1112.8 35.83C1112.7 35.56 1112.6 35.28 1112.5 35C1110.97 35.06 1109.44 35.12 1107.91 35.19C1105.9 35.02 1103.88 34.85 1101.86 34.68C1099.92 34.72 1097.98 34.77 1096.04 34.81C1072.03 34.87 1048.01 34.93 1024 34.99C1020.16 32.22 1003.21 33.84 997.5 33.84C973.5 33.84 949.5 33.77 925.5 33.77C918.83 33.77 912.17 33.77 905.5 33.77C901.97 33.77 899.28 33.15 896.86 35.15C891.21 47.31 889.31 60.69 888.93 74C888.55 74.17 888.17 74.33 887.79 74.5C887.88 75.33 887.97 76.17 888.06 77C887.93 134.97 887.8 192.93 887.67 250.9C890.27 252.79 893.94 252.25 897.5 252.25C904.83 252.25 912.17 252.33 919.5 252.33C947.83 252.33 976.17 252.23 1004.5 252.41C1012.17 252.46 1019.83 252.5 1027.5 252.49C1031.01 252.49 1035.31 253.06 1038 251.01C1042.65 250.94 1047.29 250.87 1051.94 250.79C1053.46 250.86 1054.98 250.93 1056.5 251C1056.57 250.72 1056.64 250.44 1056.71 250.17C1057.14 250.05 1057.57 249.94 1058 249.83C1058.17 250.23 1058.33 250.62 1058.5 251.01C1059.5 250.88 1060.5 250.75 1061.5 250.62C1061.67 250.12 1061.83 249.62 1062 249.12C1068.33 248.12 1074.67 247.12 1081 246.11C1082.11 245.71 1083.23 245.31 1084.34 244.9C1088.19 242.72 1091.34 241.16 1094.5 238C1094.5 249 1094.5 260 1094.5 271C1086.76 263.26 1074.57 260.38 1064 259.88C1063.83 259.39 1063.67 258.89 1063.5 258.4C1062.83 258.27 1062.17 258.15 1061.5 258.03C1061.28 258.35 1061.06 258.68 1060.83 259C1060.17 258.89 1059.51 258.78 1058.85 258.67C1057.55 258.52 1056.25 258.37 1054.95 258.21C1051.3 258.14 1047.65 258.07 1044 258C1043.83 257.62 1043.67 257.23 1043.5 256.84C1042 256.92 1040.5 257 1039 257.08C1037.34 257.13 1035.69 257.17 1034.03 257.22C985.52 257.14 937.01 257.07 888.5 257C888.28 290.63 888.07 324.27 887.85 357.9C887.66 376.93 887.47 395.97 887.28 415C887.2 418.17 887.12 421.33 887.03 424.5C887.39 424.67 887.74 424.83 888.1 425C887.79 432.97 888.7 441.75 889.97 449.53C890.35 451.87 890.03 454.17 890.22 456.34C890.37 458.07 891.47 459.98 891.81 461.69C893.57 470.46 895.49 476.99 902 483.5C881.69 483.67 861.39 483.83 841.08 484C840.97 483.34 840.87 482.68 840.76 482.02C841.84 480.69 843.63 479.43 844.47 477.97C848.09 471.66 849.85 460.6 850.97 453.47C851.27 451.52 850.73 449.48 851.03 447.53C854.39 426.09 853 403.46 853 381.5C853 298.83 853 216.17 853 133.5C853 111.22 854.44 88.22 851.03 66.47C850.73 64.52 851.27 62.48 850.97 60.53C849.15 48.89 847.72 38.22 839 29.5C883 29.29 927 29.08 971 28.87ZM55 570.1C56.33 570.1 57.67 570.1 59 570.1C59.5 570.61 60 571.11 60.5 571.61C61 571.44 61.5 571.27 62 571.1C64.5 571.4 67 571.7 69.5 572C69.64 572.23 69.77 572.47 69.91 572.7C71.26 574.1 71.08 573.97 73.24 574.15C79.51 577.22 90.84 586.46 93.17 593C92.13 594.08 91.08 595.16 90.04 596.24C89.77 596.47 89.49 596.7 89.22 596.94C87.14 597.43 87.06 597.34 86.07 599.25C84.54 600.5 83.02 601.75 81.5 603C78.44 599.23 76.02 594.48 71.97 591.53C62.9 584.91 48.08 582.61 41.16 593.66C39.52 596.27 39.02 599.5 39 602.5C38.93 615.06 51.84 623.76 61.03 630.47C63.5 632.27 66.05 633.37 68.06 635.76C69.02 637.65 69.13 637.6 71.09 638.12C84.38 646.41 98.58 664.81 95.97 681.47C94.3 692.15 90.09 697.63 83.02 704.88C81.04 705.42 80.99 705.41 80.06 707.31C76.04 711.57 69.11 713.1 63.69 714.19C44.77 717.97 29.57 708.45 19.47 693.03C17.55 690.1 15.7 687.99 15 684.5C19.17 682.33 23.33 680.17 27.5 678C33.44 685.32 36.65 693.4 45.69 697.81C59.62 704.62 75.7 696.29 79.19 681.69C79.69 679.59 80.33 677.82 79.97 675.53C77.65 660.73 62.59 653.45 53.42 643.87C52.52 642.24 52.72 642.5 50.84 641.93C46.7 638.58 42.56 635.22 38.43 631.87C37.54 629.83 37.12 629.46 34.97 628.84C31.15 626.67 28.8 621.57 26.84 617.66C20.15 604.26 23.91 586.27 35.97 577.47C40.64 574.06 45.99 570.92 52 571.11C52.5 571.29 53 571.47 53.5 571.65C54 571.13 54.5 570.62 55 570.1ZM968 570.1C970.33 570.1 972.67 570.1 975 570.1C975.17 570.55 975.33 571.01 975.5 571.46C976.83 571.63 978.17 571.8 979.5 571.97C979.72 571.65 979.94 571.32 980.17 571C981.94 571 983.72 571 985.5 571C985.58 571.21 985.66 571.42 985.73 571.64C985.99 572.08 986.24 572.53 986.5 572.98C987.67 572.99 988.83 573 990 573.01C990.33 572.96 990.67 572.91 991 572.86C991.17 573.26 991.33 573.66 991.5 574.07C992.33 574.07 993.17 574.07 994 574.07C1000.07 574.39 1006.17 578.38 1010.98 581.78C1011.98 583.61 1012.06 583.58 1014.13 584.05C1028.73 594.18 1039.17 610 1042.03 627.47C1042.4 629.73 1043.63 632.19 1043.63 634.5C1043.63 637.67 1043 641.18 1043 644.5C1043 657.05 1040.8 669.5 1033.84 680.34C1030.24 685.97 1025.76 690.74 1021 695.5C1027.33 704.17 1033.67 712.83 1040 721.5C1036.46 722.21 1025.14 723.06 1022.03 721.47C1020.43 720.65 1015.32 712.97 1014.04 711.11C1013.54 709.11 1013.59 709.06 1011.72 708.12C1010.98 707.08 1010.24 706.04 1009.5 705C1003.89 707.81 997.6 711.51 991.31 712.81C987.64 713.57 983.36 713.34 980 715.04C979.83 714.51 979.67 713.98 979.5 713.45C978.5 713.59 977.5 713.73 976.5 713.88C976.33 714.26 976.17 714.64 976 715.02C973 715.02 970 715.02 967 715.02C966.83 714.63 966.67 714.24 966.5 713.85C965 713.88 963.5 713.91 962 713.93C956.15 714.09 951.11 712.12 945.5 711C945.38 710.77 945.25 710.54 945.13 710.31C943.76 708.92 943.93 709.03 941.71 708.85C941.31 708.9 940.9 708.95 940.5 709C937.01 706.73 933.51 704.47 930.02 702.2C929 700.38 928.87 700.42 926.85 699.92C924.57 697.92 922.29 695.93 920.01 693.93C920.01 693.62 920.02 693.31 920.02 693C919.68 692.7 919.34 692.4 919 692.1C918.75 692.05 918.51 692 918.26 691.95C903.96 675.56 899.62 662.39 898.92 641C899.29 640.17 899.66 639.33 900.03 638.5C899.67 638.33 899.3 638.17 898.94 638C899.96 636.03 899.36 635.46 899.38 633.5C899.4 629.69 902.7 619.59 904.19 615.69C910.78 598.39 924.83 583.22 942 576.5C948.79 573.84 955.55 570.71 963 571.15C964.5 571.23 966 571.31 967.5 571.38C967.67 570.96 967.83 570.53 968 570.1ZM1568 570.1C1569.67 570.1 1571.33 570.1 1573 570.1C1573.5 570.63 1574 571.17 1574.5 571.7C1575 571.51 1575.5 571.32 1576 571.12C1576.67 571.06 1577.33 570.99 1578 570.92C1579.38 572.3 1579.1 572.07 1581 572.12C1589.9 572.37 1603.21 585.93 1607 593.5C1604.73 595.32 1602.46 597.13 1600.19 598.95C1598.25 599.51 1598.48 599.24 1597.57 600.88C1596.88 601.58 1596.19 602.29 1595.5 603C1591.27 598.77 1587.98 593.11 1582.97 589.53C1571.71 581.49 1554.94 586.95 1552.19 600.69C1550.88 607.21 1556.14 614.64 1560.5 619C1570.66 629.16 1585.43 635.13 1594.15 646.65C1595.01 648.65 1595.38 649.02 1597.35 649.89C1606.56 658.82 1611.39 672.45 1608.81 685.31C1605.33 702.74 1587.46 715 1570.5 715C1567.55 715 1564.76 715.23 1562 714.16C1561.83 713.76 1561.67 713.35 1561.5 712.95C1560.33 712.97 1559.17 712.99 1558 713C1556.9 712.63 1555.79 712.25 1554.69 711.88C1542.04 709.05 1534.31 695.56 1528 685.5C1531.41 682.09 1536.81 678.94 1541.5 678C1548.92 692.85 1559.71 702.32 1577 699.13C1578.98 698.95 1578.79 699.02 1580.03 697.71C1583.48 695.42 1588.27 692.8 1590.47 688.97C1596.78 677.96 1591.96 668.78 1585 660.28C1585.18 660.02 1585.35 659.76 1585.53 659.5C1584.73 658.78 1583.94 658.05 1583.14 657.33C1582.77 657.13 1582.4 656.94 1582.03 656.74C1580.73 655.54 1579.42 654.34 1578.11 653.15C1573.72 649.51 1569.32 645.88 1564.92 642.24C1563.93 640.33 1563.83 640.44 1561.77 639.94C1552.23 632.85 1541.22 624.6 1538.19 612.31C1533.79 594.49 1544.54 571.53 1565 571.14C1565.5 571.35 1566 571.56 1566.5 571.76C1567 571.21 1567.5 570.65 1568 570.1ZM141.99 574C141.99 593 141.99 611.99 141.99 630.99C164.65 630.99 187.32 630.99 209.99 630.99C209.99 612.01 209.99 593.03 209.99 574.04C214.99 574.04 219.99 574.04 224.99 574.04C224.99 619.68 224.99 665.32 224.99 710.96C220 710.96 215.01 710.96 210.01 710.96C210.01 689.31 210.01 667.66 210.01 646.01C187.34 646.01 164.68 646.01 142.01 646.01C142.01 667.66 142.01 689.31 142.01 710.96C137.01 710.96 132.01 710.96 127.01 710.96C127.01 665.64 127.01 620.32 127.01 575C131.6 573.24 137.06 574 141.99 574ZM313.5 574C314.61 574.01 316.25 573.7 317.28 574.22C318.96 575.06 321.47 582.44 322.19 584.31C324.92 591.48 328.8 598.47 332.16 605.34C338.46 618.25 345.23 631.53 350.5 645C353.97 653.87 358.96 662.18 362.5 671C363.25 672.86 364.75 674.14 365.5 676C370.2 687.71 377.13 698.98 381 710.96C375.83 710.96 370.67 710.96 365.5 710.96C358.17 696.31 350.83 681.65 343.5 667C324.5 667 305.5 667 286.5 667C279.67 681.64 272.83 696.28 266 710.92C260.33 710.92 254.67 710.92 249 710.92C270.5 665.28 292 619.64 313.5 574ZM418.5 574C422.26 574.81 422.84 577.68 424.5 581C427.72 587.45 430.93 593.9 434.16 600.34C448.09 628.21 461.57 656.14 475.5 684C479.63 680.65 485.27 665.43 488.16 659.66C493.98 648.02 499.33 636.3 505.16 624.66C508.88 617.2 513.47 609.75 516.5 602C519.13 595.27 522.59 588.84 525.84 582.34C527.41 579.21 528.41 575.62 531.5 574C534.71 575.68 534.22 578.34 534.38 581.5C534.47 583.52 535.66 585.55 535.97 587.53C536.95 593.79 536.94 600.08 538.19 606.31C539.19 611.32 539.24 616.4 540.03 621.47C541.92 633.55 544.78 646.27 545.38 658.5C545.47 660.52 546.66 662.55 546.97 664.53C547.64 668.82 547.36 673.18 548.03 677.47C548.45 680.17 549.55 682.83 549.97 685.53C550.64 689.82 550.36 694.18 551.03 698.47C551.72 702.84 553.08 706.7 552.5 711C547.83 711 543.17 711 538.5 711C534.17 679 529.83 647 525.5 615C509.83 647 494.17 679 478.5 711C477.14 711 474.97 711.41 473.72 710.78C472.26 710.05 471.21 706.42 470.5 705C467.83 699.67 465.17 694.33 462.5 689C450.17 664.33 437.83 639.67 425.5 615C421.33 646.98 417.17 678.97 413 710.95C408.5 710.95 404 710.95 399.5 710.95C397.77 702.48 401.6 689.19 402.97 680.47C403.64 676.18 403.36 671.82 404.03 667.53C404.45 664.83 405.55 662.17 405.97 659.47C406.64 655.18 406.36 650.82 407.03 646.53C407.83 641.44 409.17 636.56 409.97 631.47C410.64 627.18 410.36 622.82 411.03 618.53C411.45 615.83 412.55 613.17 412.97 610.47C413.22 608.85 412.78 607.15 413.03 605.53C414.19 598.12 415.4 590.67 416.81 583.31C417.48 579.87 416.87 577.25 418.5 574ZM597.5 574C601.35 574.83 601.46 577.96 603.16 581.34C606.49 588.01 609.82 594.68 613.16 601.34C622.52 620.08 631.5 638.97 640.84 657.66C644.89 665.75 648.92 677.12 654.5 684C658.54 679.03 661.18 671.92 663.5 666C666.5 658.34 671.26 651.37 674.19 643.69C675.75 639.59 678.48 635.86 680.47 631.97C685.12 622.88 691.79 610.47 695.5 601C698.13 594.27 701.59 587.84 704.84 581.34C706.76 577.52 706.88 574.36 711.5 574C713.53 576.71 713.45 584.74 714.03 588.47C714.87 593.82 716.13 599.18 716.97 604.53C717.22 606.15 716.78 607.85 717.03 609.47C719.37 624.37 721.94 639.33 723.22 654.34C723.39 656.37 724.65 658.49 724.97 660.53C725.64 664.82 725.36 669.18 726.03 673.47C726.45 676.17 727.55 678.83 727.97 681.53C728.64 685.82 728.36 690.18 729.03 694.47C729.34 696.42 730.61 698.51 730.63 700.5C730.63 701.21 730.03 701.74 730.06 702.5C730.2 705.53 731.91 707.95 731.5 711C726.83 711 722.17 711 717.5 711C712.83 679.33 708.17 647.67 703.5 616C687.83 647.67 672.17 679.33 656.5 711C655.05 710.98 653.31 711.29 652.03 710.47C650.52 709.5 649.63 706.22 648.84 704.66C646.18 699.32 643.51 693.99 640.84 688.66C628.73 664.44 616.61 640.22 604.5 616C600 647.64 595.5 679.27 591 710.91C586.33 710.91 581.67 710.91 577 710.91C577.08 702.12 579.62 693.1 580.97 684.47C581.64 680.18 581.36 675.82 582.03 671.53C582.45 668.83 583.55 666.17 583.97 663.47C584.64 659.18 584.36 654.82 585.03 650.53C585.82 645.5 587.18 640.5 587.97 635.47C588.64 631.18 588.36 626.82 589.03 622.53C589.45 619.83 590.55 617.17 590.97 614.47C592 607.86 592 601.14 593.03 594.53C593.45 591.83 594.55 589.17 594.97 586.47C595.63 582.25 594.77 577.51 597.5 574ZM813.5 574C815.15 574.02 817.28 573.59 818.47 575.03C820.03 576.92 820.99 581.02 822.16 583.34C825.53 590.09 828.47 596.91 831.84 603.66C834.36 608.68 836.42 613.82 838.5 619C839.07 620.41 840.17 621.36 840.81 622.69C842.88 626.93 844.77 631.59 846.5 636C848.66 641.53 852.34 646.47 854.5 652C858.21 661.49 862.69 671.2 867.16 680.34C870.35 686.88 873.27 693.53 876.5 700C878.24 703.49 881.01 707.19 880.5 711C875.5 711 870.5 711 865.5 711C858.5 696.33 851.5 681.67 844.5 667C825.17 667 805.83 667 786.5 667C779.5 681.65 772.5 696.31 765.5 710.96C760 710.96 754.5 710.96 749 710.96C770.5 665.31 792 619.65 813.5 574ZM1198.99 574.22C1199.07 578.85 1199.16 583.48 1199.24 588.1C1195.02 590.16 1188.29 589 1183.5 589C1171.8 589 1156.11 590.56 1145 588.5C1145.17 602.33 1145.33 616.17 1145.5 630C1163.31 630.09 1181.13 630.18 1198.94 630.26C1198.98 635.07 1199.02 639.88 1199.06 644.69C1181.21 644.79 1163.35 644.9 1145.5 645C1145.33 666.83 1145.17 688.67 1145 710.5C1140.17 710.67 1135.33 710.83 1130.5 711C1130.33 665.5 1130.17 620 1130 574.5C1153 574.41 1175.99 574.32 1198.99 574.22ZM1224.01 574C1229.01 574 1234 574 1238.99 574C1238.99 619.65 1238.99 665.3 1238.99 710.96C1234 710.96 1229.01 710.96 1224.01 710.96C1224.01 665.3 1224.01 619.65 1224.01 574ZM1287 573.96C1286.77 603.8 1286.98 633.66 1286.98 663.5C1286.98 671.17 1286.98 678.83 1286.98 686.5C1286.98 689.93 1286.31 694.43 1288 697C1305.17 697 1322.33 697 1339.5 697C1339.67 701.5 1339.83 706 1340 710.5C1317.83 710.67 1295.67 710.83 1273.5 711C1273.33 665.5 1273.17 620 1273 574.5C1277.67 574.32 1282.33 574.14 1287 573.96ZM1378.5 574C1382.26 574.81 1382.84 577.68 1384.5 581C1387.72 587.45 1390.93 593.9 1394.16 600.34C1408.09 628.21 1421.57 656.14 1435.5 684C1439.86 679.64 1445.84 664.28 1449.16 657.66C1454.97 646.03 1460.33 634.3 1466.16 622.66C1469.55 615.86 1473.73 609.07 1476.5 602C1479.13 595.27 1482.59 588.84 1485.84 582.34C1487.41 579.21 1488.41 575.62 1491.5 574C1494.84 575.75 1493.95 578.15 1494.22 581.34C1494.39 583.37 1495.65 585.49 1495.97 587.53C1496.95 593.79 1496.94 600.08 1498.19 606.31C1499.19 611.32 1499.24 616.4 1500.03 621.47C1500.34 623.42 1501.61 625.51 1501.63 627.5C1501.63 628.21 1501.03 628.74 1501.06 629.5C1501.15 631.54 1502.43 633.7 1502.81 635.69C1503.37 638.57 1503.52 641.66 1503.97 644.53C1504.22 646.15 1503.78 647.85 1504.03 649.47C1505.24 657.2 1506.74 664.69 1507.97 672.53C1508.22 674.15 1507.78 675.85 1508.03 677.47C1508.45 680.17 1509.55 682.83 1509.97 685.53C1510.64 689.82 1510.36 694.18 1511.03 698.47C1511.72 702.84 1513.08 706.7 1512.5 711C1507.83 711 1503.17 711 1498.5 711C1494.17 679 1489.83 647 1485.5 615C1469.83 647 1454.17 679 1438.5 711C1437.14 711 1434.97 711.41 1433.72 710.78C1432.26 710.05 1431.21 706.42 1430.5 705C1427.83 699.67 1425.17 694.33 1422.5 689C1410.17 664.33 1397.83 639.67 1385.5 615C1381.33 646.98 1377.17 678.97 1373 710.95C1368.5 710.95 1364 710.95 1359.5 710.95C1357.77 702.48 1361.6 689.19 1362.97 680.47C1363.64 676.18 1363.36 671.82 1364.03 667.53C1364.45 664.83 1365.55 662.17 1365.97 659.47C1366.64 655.18 1366.36 650.82 1367.03 646.53C1367.82 641.5 1369.18 636.5 1369.97 631.47C1370.64 627.18 1370.36 622.82 1371.03 618.53C1371.45 615.83 1372.55 613.17 1372.97 610.47C1373.64 606.18 1373.36 601.82 1374.03 597.53C1374.78 592.77 1375.9 588.03 1376.81 583.31C1377.48 579.87 1376.87 577.25 1378.5 574ZM968 584.7C917.6 586.26 896.16 651.03 931.53 684.97C944.68 697.59 962.53 702.82 980.5 700.11C986.84 699.15 995.69 697.3 1000.11 692.5C990.44 680.04 980.76 667.58 971.09 655.11C976.41 655.04 981.73 654.98 987.05 654.91C995.2 664.89 1003.35 674.87 1011.5 684.86C1046.88 650.36 1024.97 585.5 974 584.68C973.83 584.45 973.67 584.23 973.5 584C971.83 584.01 970.17 584.02 968.5 584.03C968.33 584.25 968.17 584.48 968 584.7ZM315.5 604.05C307.81 620.3 300.12 636.54 292.42 652.79C307.61 652.79 322.8 652.79 337.99 652.79C330.49 636.54 323 620.3 315.5 604.05ZM815.5 604.05C807.96 620.3 800.42 636.55 792.88 652.79C808.01 652.79 823.13 652.79 838.25 652.79C830.67 636.55 823.08 620.3 815.5 604.05Z" fill="#ffffff" fill-rule="evenodd" stroke="#ffffff" stroke-width="0.25" stroke-linejoin="round"/>
<path d="M1101.86 34.68C1099.92 34.72 1097.98 34.77 1096.04 34.81C1097.98 34.77 1099.92 34.72 1101.86 34.68ZM1107.91 35.19C1109.44 35.12 1110.97 35.06 1112.5 35C1112.6 35.28 1112.7 35.56 1112.8 35.83C1111.37 35.88 1109.93 35.93 1108.5 35.98C1108.3 35.72 1108.11 35.45 1107.91 35.19ZM575.04 46.21C574.86 46.43 574.68 46.64 574.5 46.86C573.07 46.85 571.64 46.84 570.21 46.83C570.31 46.56 570.4 46.28 570.5 46C572.01 46.07 573.53 46.14 575.04 46.21ZM591.01 46.25C592.65 46.4 594.29 46.55 595.94 46.7C594.29 46.55 592.65 46.4 591.01 46.25ZM741 68.95C741.3 69.3 741.6 69.66 741.9 70.01C741.6 70.02 741.3 70.03 741 70.04C741 69.68 741 69.31 741 68.95ZM729.99 106.73C727.97 106.76 725.95 106.79 723.93 106.83C725.95 106.79 727.97 106.76 729.99 106.73ZM1056.71 250.17C1056.64 250.44 1056.57 250.72 1056.5 251C1054.98 250.93 1053.46 250.86 1051.94 250.79C1052.13 250.55 1052.31 250.31 1052.5 250.07C1053.9 250.11 1055.31 250.14 1056.71 250.17ZM1034.03 257.22C1035.69 257.17 1037.34 257.13 1039 257.08C1039 257.36 1039 257.63 1039 257.91C1037.34 257.68 1035.69 257.45 1034.03 257.22ZM1054.95 258.21C1056.25 258.37 1057.55 258.52 1058.85 258.67C1057.74 258.74 1056.62 258.81 1055.5 258.88C1055.32 258.66 1055.13 258.43 1054.95 258.21ZM887.85 357.9C887.92 376.93 887.98 395.97 888.05 415C887.79 415 887.54 415 887.28 415C887.47 395.97 887.66 376.93 887.85 357.9ZM624.02 474.14C625.04 474.35 626.05 474.55 627.07 474.75C626.05 474.55 625.04 474.35 624.02 474.14ZM840.76 482.02C840.87 482.68 840.97 483.34 841.08 484C840.89 484.17 840.69 484.34 840.5 484.51C840.09 484.17 839.69 483.84 839.28 483.5C839.77 483.01 840.27 482.51 840.76 482.02ZM655.01 483.84C653.7 483.8 652.39 483.77 651.07 483.73C652.39 483.77 653.7 483.8 655.01 483.84ZM1198.99 574.22C1199.27 574.32 1199.56 574.41 1199.84 574.5C1199.86 578.83 1199.88 583.17 1199.9 587.5C1199.68 587.7 1199.46 587.9 1199.24 588.1C1199.16 583.48 1199.07 578.85 1198.99 574.22ZM968 584.7C970 584.69 972 584.69 974 584.68C1024.97 585.5 1046.88 650.36 1011.5 684.86C1003.35 674.87 995.2 664.89 987.05 654.91C986.87 654.61 986.68 654.31 986.5 654.01C981.5 654 976.5 653.99 971.5 653.98C971.36 654.36 971.22 654.74 971.09 655.11C980.76 667.58 990.44 680.04 1000.11 692.5C995.69 697.3 986.84 699.15 980.5 700.11C962.53 702.82 944.68 697.59 931.53 684.97C896.16 651.03 917.6 586.26 968 584.7ZM315.5 604.05C323 620.3 330.49 636.54 337.99 652.79C322.8 652.79 307.61 652.79 292.42 652.79C300.12 636.54 307.81 620.3 315.5 604.05ZM815.5 604.05C823.08 620.3 830.67 636.55 838.25 652.79C823.13 652.79 808.01 652.79 792.88 652.79C800.42 636.55 807.96 620.3 815.5 604.05ZM1198.94 630.26C1199.21 630.34 1199.47 630.42 1199.73 630.5C1199.67 635.17 1199.62 639.83 1199.56 644.5C1199.39 644.56 1199.23 644.63 1199.06 644.69C1199.02 639.88 1198.98 635.07 1198.94 630.26ZM1578.11 653.15C1579.42 654.34 1580.73 655.54 1582.03 656.74C1580.73 655.54 1579.42 654.34 1578.11 653.15ZM1583.14 657.33C1583.94 658.05 1584.73 658.78 1585.53 659.5C1585.35 659.76 1585.18 660.02 1585 660.28C1584.38 659.3 1583.76 658.31 1583.14 657.33ZM918.26 691.95C918.51 692 918.75 692.05 919 692.1C919.02 692.38 919.04 692.65 919.06 692.93C918.79 692.6 918.53 692.28 918.26 691.95ZM919.06 692.93C919.38 692.95 919.7 692.98 920.02 693C920.02 693.31 920.01 693.62 920.01 693.93C919.69 693.59 919.37 693.26 919.06 692.93Z" fill="#010101" fill-rule="evenodd" stroke="#010101" stroke-width="0.25" stroke-linejoin="round"/>
<path d="M599 29.09C598.83 29.5 598.67 29.91 598.5 30.32C596.67 30.27 594.83 30.21 593 30.15C593.17 29.67 593.33 29.19 593.5 28.71C595.33 28.84 597.17 28.96 599 29.09ZM615 29.09C616.83 28.96 618.67 28.83 620.5 28.7C620.67 29.18 620.83 29.66 621 30.14C619.17 30.19 617.33 30.25 615.5 30.3C615.33 29.9 615.17 29.49 615 29.09ZM971 28.87C975.76 27.44 981.43 28.12 986.5 28.12C996.17 28.12 1005.83 28.12 1015.5 28.12C1047.17 28.12 1078.83 28.12 1110.5 28.12C1121.17 28.12 1131.83 28.12 1142.5 28.12C1145.42 28.12 1152.1 26.88 1154.54 28.59C1154.96 28.89 1154.82 29.62 1155.16 30C1110.28 30.36 1065.38 29.99 1020.5 29.99C1008.83 29.99 997.17 29.99 985.5 29.99C981.22 29.99 974.29 31.21 971 28.87ZM636 30.97C635.83 31.45 635.67 31.94 635.5 32.42C634.17 32.28 632.83 32.13 631.5 31.99C631.28 31.66 631.06 31.33 630.83 31C631.06 30.62 631.28 30.24 631.5 29.86C633 30.23 634.5 30.6 636 30.97ZM638 31.85C639.5 31.75 641 31.65 642.5 31.56C642.67 32.06 642.83 32.56 643 33.06C641.5 33.04 640 33.01 638.5 32.98C638.33 32.6 638.17 32.23 638 31.85ZM1024 34.99C981.62 35.04 939.24 35.1 896.86 35.15C899.28 33.15 901.97 33.77 905.5 33.77C912.17 33.77 918.83 33.77 925.5 33.77C949.5 33.77 973.5 33.84 997.5 33.84C1003.21 33.84 1020.16 32.22 1024 34.99ZM566.34 34.81C565.22 35.22 564.11 35.62 563 36.03C563.17 35.53 563.33 35.04 563.5 34.55C564.45 34.64 565.39 34.73 566.34 34.81ZM652.77 34.64C654.01 34.6 655.26 34.55 656.5 34.51C656.67 35.02 656.83 35.54 657 36.05C655.83 36.03 654.67 36.02 653.5 36C653.26 35.55 653.01 35.09 652.77 34.64ZM1118 36.88C1117.17 36.98 1116.33 37.08 1115.5 37.18C1115.28 36.79 1115.06 36.39 1114.83 36C1115.06 35.66 1115.28 35.31 1115.5 34.97C1116.17 35.04 1116.83 35.1 1117.5 35.17C1117.67 35.74 1117.83 36.31 1118 36.88ZM1125 36.88C1125.5 36.67 1126 36.45 1126.5 36.24C1127 36.8 1127.5 37.36 1128 37.92C1127.17 38 1126.33 38.08 1125.5 38.16C1125.33 37.74 1125.17 37.31 1125 36.88ZM677 40.94C678.5 41.12 680 41.29 681.5 41.46C681.67 41.98 681.83 42.5 682 43.02C679.57 42.91 678.56 42.81 677 40.94ZM601 46.91C600.83 47.32 600.67 47.74 600.5 48.15C599.61 47.77 598.72 47.38 597.83 47C598.06 46.65 598.28 46.31 598.5 45.96C599.33 46.28 600.17 46.6 601 46.91ZM621 50.95C623.05 51.08 623.04 51.21 624.27 52.28C623.34 52.26 622.42 52.24 621.5 52.22C621.33 51.79 621.17 51.37 621 50.95ZM628 52.95C629.92 53.05 630.01 53.12 631.35 54.17C630.73 54.33 630.12 54.48 629.5 54.64C629 54.07 628.5 53.51 628 52.95ZM651.78 61.85C653.94 62.01 653.71 61.82 655.07 63.27C653.98 62.8 652.88 62.32 651.78 61.85ZM740.11 68.68C740.41 68.77 740.7 68.86 741 68.95C741 69.31 741 69.68 741 70.04C740.7 69.59 740.41 69.13 740.11 68.68ZM888.93 74C889 74.83 889.08 75.67 889.15 76.5C888.79 76.67 888.43 76.83 888.06 77C887.97 76.17 887.88 75.33 887.79 74.5C888.17 74.33 888.55 74.17 888.93 74ZM690.81 81.91C692.97 82.38 693.02 82.27 694 84.24C692.94 83.46 691.87 82.69 690.81 81.91ZM491.07 119C491.07 121 491.07 123 491.07 125C490.72 124.83 490.36 124.67 490 124.5C490.01 122.83 490.01 121.17 490.02 119.5C490.37 119.33 490.72 119.17 491.07 119ZM479.88 135C480.26 135.17 480.65 135.33 481.04 135.5C481.04 137.5 481.03 139.5 481.03 141.5C480.65 141.67 480.27 141.83 479.88 142C479.88 139.67 479.88 137.33 479.88 135ZM516.87 180.96C517.69 181.94 518.51 182.91 519.33 183.88C517.4 182.98 517.42 182.93 516.87 180.96ZM534.1 198.65C535.42 199.81 536.73 200.96 538.04 202.12C535.75 201.47 535.09 200.92 534.1 198.65ZM547.1 209.72C548.11 210.51 549.12 211.3 550.13 212.1C548.12 211.57 548.05 211.63 547.1 209.72ZM509.71 211.11C511.6 212.03 511.57 212.11 512.1 214.06C511.3 213.07 510.51 212.09 509.71 211.11ZM555.01 215.79C556.06 216.55 557.11 217.32 558.16 218.09C556.1 217.6 556.01 217.67 555.01 215.79ZM1084.34 244.9C1083.23 245.31 1082.11 245.71 1081 246.11C1081.17 245.68 1081.33 245.24 1081.5 244.8C1082.45 244.84 1083.39 244.87 1084.34 244.9ZM1062 249.12C1061.83 249.62 1061.67 250.12 1061.5 250.62C1060.5 250.75 1059.5 250.88 1058.5 251.01C1058.33 250.62 1058.17 250.23 1058 249.83C1059.33 249.59 1060.67 249.36 1062 249.12ZM887.67 250.9C937.78 250.94 987.89 250.97 1038 251.01C1035.31 253.06 1031.01 252.49 1027.5 252.49C1019.83 252.5 1012.17 252.46 1004.5 252.41C976.17 252.23 947.83 252.33 919.5 252.33C912.17 252.33 904.83 252.25 897.5 252.25C893.94 252.25 890.27 252.79 887.67 250.9ZM1039 257.08C1040.5 257 1042 256.92 1043.5 256.84C1043.67 257.23 1043.83 257.62 1044 258C1042.33 257.97 1040.67 257.94 1039 257.91C1039 257.63 1039 257.36 1039 257.08ZM558.82 257.92C560.84 258.43 560.95 258.36 561.94 260.24C560.9 259.47 559.86 258.7 558.82 257.92ZM1064 259.88C1063.17 259.98 1062.33 260.08 1061.5 260.18C1061.28 259.79 1061.06 259.39 1060.83 259C1061.06 258.68 1061.28 258.35 1061.5 258.03C1062.17 258.15 1062.83 258.27 1063.5 258.4C1063.67 258.89 1063.83 259.39 1064 259.88ZM638.7 266.97C640.76 267.35 641.08 267.37 642.37 268.98C640.25 268.61 639.98 268.63 638.7 266.97ZM573.73 268.94C575.84 269.43 575.96 269.34 577 271.24C575.91 270.47 574.82 269.7 573.73 268.94ZM711.09 313.76C712.09 314.54 713.08 315.32 714.07 316.1C712.14 315.58 712.03 315.62 711.09 313.76ZM692.94 343.89C694.98 344.42 694.99 344.38 695.92 346.34C694.93 345.52 693.93 344.71 692.94 343.89ZM887.28 415C887.54 415 887.79 415 888.05 415C888.07 418.33 888.08 421.67 888.1 425C887.74 424.83 887.39 424.67 887.03 424.5C887.12 421.33 887.2 418.17 887.28 415ZM531.09 418.68C532.41 419.83 533.72 420.98 535.04 422.13C532.77 421.49 532.09 420.93 531.09 418.68ZM762.14 424.84C762.1 426.82 762.14 426.97 761.05 428.43C761.42 427.24 761.78 426.04 762.14 424.84ZM539.13 425.73C540.12 426.52 541.11 427.3 542.1 428.09C540.15 427.56 540.06 427.63 539.13 425.73ZM556.03 438.77C557.09 439.54 558.14 440.31 559.2 441.08C557.12 440.59 557.03 440.67 556.03 438.77ZM752.25 445.08C751.46 446.06 750.66 447.05 749.87 448.03C750.4 446.08 750.36 446 752.25 445.08ZM565.97 445.8C567.07 446.55 568.16 447.29 569.25 448.03C567.14 447.57 567.03 447.64 565.97 445.8ZM562.61 466.85C564.73 466.96 564.85 466.86 566.38 468.09C564.22 468 564.11 468.02 562.61 466.85ZM613.93 470.69C614.79 470.71 615.64 470.73 616.5 470.75C616.67 471.19 616.83 471.63 617 472.08C615 471.91 615.16 471.92 613.93 470.69ZM706 475.08C706.02 475.22 706.03 475.36 706.05 475.5C704.3 475.76 702.56 476.03 700.82 476.29C702.38 475.46 703.94 474.62 705.5 473.78C705.67 474.22 705.83 474.65 706 475.08ZM668.21 475.7C667.01 476.71 667.02 476.85 665 476.95C665.17 476.45 665.33 475.95 665.5 475.45C666.4 475.53 667.31 475.62 668.21 475.7ZM637 476.8C638.67 476.86 640.33 476.91 642 476.97C641.83 477.47 641.67 477.98 641.5 478.48C640.17 478.32 638.83 478.15 637.5 477.99C637.33 477.59 637.17 477.2 637 476.8ZM604 478.89C605.17 478.9 606.33 478.91 607.5 478.92C607.67 479.33 607.83 479.74 608 480.15C606.83 480.17 605.67 480.18 604.5 480.2C604.33 479.77 604.17 479.33 604 478.89ZM673.17 482C672.44 482.3 671.72 482.6 671 482.89C670.9 482.43 670.8 481.96 670.7 481.5C671.52 481.67 672.34 481.83 673.17 482ZM663 482.88C662.83 483.38 662.67 483.88 662.5 484.38C661 484.23 659.5 484.08 658 483.93C658.17 483.53 658.33 483.12 658.5 482.72C660 482.77 661.5 482.83 663 482.88ZM55 570.1C54.5 570.62 54 571.13 53.5 571.65C53 571.47 52.5 571.29 52 571.11C52.17 570.66 52.33 570.22 52.5 569.77C53.33 569.88 54.17 569.99 55 570.1ZM59 570.1C59.83 569.99 60.67 569.88 61.5 569.77C61.67 570.21 61.83 570.66 62 571.1C61.5 571.27 61 571.44 60.5 571.61C60 571.11 59.5 570.61 59 570.1ZM968 570.1C967.83 570.53 967.67 570.96 967.5 571.38C966 571.31 964.5 571.23 963 571.15C963.17 570.68 963.33 570.21 963.5 569.75C965 569.86 966.5 569.98 968 570.1ZM975 570.1C976.5 570.01 978 569.92 979.5 569.84C979.72 570.22 979.94 570.61 980.17 571C979.94 571.32 979.72 571.65 979.5 571.97C978.17 571.8 976.83 571.63 975.5 571.46C975.33 571.01 975.17 570.55 975 570.1ZM1568 570.1C1567.5 570.65 1567 571.21 1566.5 571.76C1566 571.56 1565.5 571.35 1565 571.14C1565.17 570.69 1565.33 570.23 1565.5 569.78C1566.33 569.89 1567.17 569.99 1568 570.1ZM1573 570.1C1573.83 569.98 1574.67 569.86 1575.5 569.74C1575.67 570.2 1575.83 570.66 1576 571.12C1575.5 571.32 1575 571.51 1574.5 571.7C1574 571.17 1573.5 570.63 1573 570.1ZM1578 570.92C1578.83 570.91 1579.67 570.9 1580.5 570.89C1580.67 571.3 1580.83 571.71 1581 572.12C1579.1 572.07 1579.38 572.3 1578 570.92ZM985.73 571.64C986.99 571.64 988.24 571.65 989.5 571.66C989.67 572.11 989.83 572.56 990 573.01C988.83 573 987.67 572.99 986.5 572.98C986.24 572.53 985.99 572.08 985.73 571.64ZM69.91 572.7C71.02 573.19 72.13 573.67 73.24 574.15C71.08 573.97 71.26 574.1 69.91 572.7ZM991 572.86C992.84 572.96 992.66 572.78 994 574.07C993.17 574.07 992.33 574.07 991.5 574.07C991.33 573.66 991.17 573.26 991 572.86ZM1287 573.96C1289.62 576.34 1288.78 578.77 1288.78 582.5C1288.78 589.5 1288.78 596.5 1288.78 603.5C1288.78 624.5 1288.78 645.5 1288.78 666.5C1288.78 675.45 1290.5 688.67 1288 697C1286.31 694.43 1286.98 689.93 1286.98 686.5C1286.98 678.83 1286.98 671.17 1286.98 663.5C1286.98 633.66 1286.77 603.8 1287 573.96ZM1010.98 581.78C1012.03 582.53 1013.08 583.29 1014.13 584.05C1012.06 583.58 1011.98 583.61 1010.98 581.78ZM974 584.68C972 584.69 970 584.69 968 584.7C968.17 584.48 968.33 584.25 968.5 584.03C970.17 584.02 971.83 584.01 973.5 584C973.67 584.23 973.83 584.45 974 584.68ZM93.17 593C92.6 595.22 92.37 595.51 90.04 596.24C91.08 595.16 92.13 594.08 93.17 593ZM89.22 596.94C88.17 597.71 87.12 598.48 86.07 599.25C87.06 597.34 87.14 597.43 89.22 596.94ZM1600.19 598.95C1599.31 599.59 1598.44 600.23 1597.57 600.88C1598.48 599.24 1598.25 599.51 1600.19 598.95ZM34.97 628.84C37.12 629.46 37.54 629.83 38.43 631.87C37.28 630.86 36.13 629.85 34.97 628.84ZM68.06 635.76C69.07 636.55 70.08 637.34 71.09 638.12C69.13 637.6 69.02 637.65 68.06 635.76ZM898.94 638C899.3 638.17 899.67 638.33 900.03 638.5C899.66 639.33 899.29 640.17 898.92 641C898.93 640 898.93 639 898.94 638ZM1561.77 639.94C1563.83 640.44 1563.93 640.33 1564.92 642.24C1563.87 641.48 1562.82 640.71 1561.77 639.94ZM50.84 641.93C52.72 642.5 52.52 642.24 53.42 643.87C52.56 643.22 51.7 642.58 50.84 641.93ZM1594.15 646.65C1596.08 647.47 1596.55 647.95 1597.35 649.89C1595.38 649.02 1595.01 648.65 1594.15 646.65ZM987.05 654.91C981.73 654.98 976.41 655.04 971.09 655.11C971.22 654.74 971.36 654.36 971.5 653.98C976.5 653.99 981.5 654 986.5 654.01C986.68 654.31 986.87 654.61 987.05 654.91ZM919 692.1C919.34 692.4 919.68 692.7 920.02 693C919.7 692.98 919.38 692.95 919.06 692.93C919.04 692.65 919.02 692.38 919 692.1ZM1580.03 697.71C1578.79 699.02 1578.98 698.95 1577 699.13C1578.01 698.66 1579.02 698.19 1580.03 697.71ZM926.85 699.92C928.87 700.42 929 700.38 930.02 702.2C928.96 701.44 927.91 700.68 926.85 699.92ZM83.02 704.88C82.04 705.69 81.05 706.5 80.06 707.31C80.99 705.41 81.04 705.42 83.02 704.88ZM1011.72 708.12C1013.59 709.06 1013.54 709.11 1014.04 711.11C1013.26 710.11 1012.49 709.12 1011.72 708.12ZM941.71 708.85C943.93 709.03 943.76 708.92 945.13 710.31C943.14 710.09 943.07 710.04 941.71 708.85ZM1554.69 711.88C1555.79 712.25 1556.9 712.63 1558 713C1555.99 713.01 1556.15 713.11 1554.69 711.88ZM1558 713C1559.17 712.99 1560.33 712.97 1561.5 712.95C1561.67 713.35 1561.83 713.76 1562 714.16C1560.83 714.16 1559.67 714.15 1558.5 714.15C1558.33 713.77 1558.17 713.39 1558 713ZM962 713.93C963.5 713.91 965 713.88 966.5 713.85C966.67 714.24 966.83 714.63 967 715.02C965.5 715.09 964 715.16 962.5 715.24C962.33 714.8 962.17 714.37 962 713.93ZM980 715.04C978.67 715.03 977.33 715.02 976 715.02C976.17 714.64 976.33 714.26 976.5 713.88C977.5 713.73 978.5 713.59 979.5 713.45C979.67 713.98 979.83 714.51 980 715.04Z" fill="#7a7a7a" fill-rule="evenodd" stroke="#7a7a7a" stroke-width="0.25" stroke-linejoin="round"/>
</svg>